<?xml version="1.0" standalone="no"?>
<!DOCTYPE svg PUBLIC "-//W3C//DTD SVG 20010904//EN"
 "http://www.w3.org/TR/2001/REC-SVG-20010904/DTD/svg10.dtd">
<svg version="1.0" xmlns="http://www.w3.org/2000/svg"
 width="200.000000pt" height="200.000000pt" viewBox="0 0 200.000000 200.000000"
 preserveAspectRatio="xMidYMid meet">

<g transform="translate(0.000000,200.000000) scale(0.100000,-0.100000)"
fill="#000000" stroke="none">
<path d="M27 1254 c-17 -17 13 -24 106 -24 117 0 158 -14 194 -69 29 -43 31
-113 3 -158 -31 -52 -71 -67 -192 -71 l-108 -4 0 -94 c0 -77 3 -94 15 -94 12
0 15 16 15 80 l0 80 83 0 c106 0 145 12 190 57 86 85 67 221 -38 280 -35 20
-55 23 -151 23 -61 0 -114 -3 -117 -6z"/>
<path d="M465 1248 c-3 -7 -4 -124 -3 -258 l3 -245 105 1 c93 0 111 3 156 27
191 98 188 368 -5 464 -47 23 -248 32 -256 11z m218 -32 c160 -58 204 -261 80
-378 -45 -43 -93 -58 -188 -58 l-85 0 0 218 c0 120 3 222 7 225 11 12 147 7
186 -7z"/>
<path d="M1062 1128 c-153 -293 -184 -358 -178 -373 8 -23 261 -18 261 5 0 12
-21 16 -111 20 l-112 5 108 209 108 209 96 -191 c53 -106 100 -192 105 -192 6
0 13 4 16 10 7 11 -202 430 -215 430 -5 0 -40 -60 -78 -132z"/>
<path d="M1475 1249 c-9 -14 -10 -13 74 -27 208 -34 360 -188 393 -396 9 -52
17 -76 26 -76 15 0 11 65 -10 145 -26 102 -116 223 -215 285 -74 48 -253 94
-268 69z"/>
<path d="M1477 1124 c-19 -19 -3 -32 47 -37 142 -14 263 -132 283 -277 6 -40
13 -56 26 -58 22 -4 22 23 2 103 -29 112 -97 190 -207 239 -56 25 -139 41
-151 30z"/>
<path d="M1475 970 c-10 -16 2 -24 53 -39 63 -18 110 -65 126 -126 15 -63 40
-68 44 -10 5 81 -80 172 -171 182 -29 4 -47 1 -52 -7z"/>
<path d="M1482 828 c-16 -16 -15 -53 2 -68 21 -16 56 -9 72 15 27 41 -39 88
-74 53z"/>
</g>
</svg>
